<svg preserveAspectRatio="none" width="100%" height="100%" overflow="visible" style="display: block;" viewBox="0 0 1275.85 122.002" fill="none" xmlns="http://www.w3.org/2000/svg">
<g id="Group 1548384564">
<path id="Vector 7899" d="M0.869363 120.073C8.5884 106.494 20.9539 71.953 38.7805 80.1944C61.0638 90.496 151.944 61.9334 171.606 80.1944C191.268 98.4554 193.889 106.416 203.939 65.2093C213.988 24.0026 212.677 7.61356 227.97 54.4394C243.262 101.265 243.699 119.525 256.37 99.8599C269.041 80.1944 283.137 90.9656 297.119 80.1944C311.101 69.4231 308.03 69.4231 333.372 80.1944C358.713 90.9656 349.872 74.1056 378.273 89.0907C406.673 104.076 400.993 78.3208 430.704 89.0907C460.415 99.8606 450.802 10.4218 469.153 65.2093C487.504 119.997 491.874 -62.6245 512.846 25.4064C533.818 113.437 542.504 89.0907 567.846 89.0907C593.188 89.0907 585.004 89.0907 610.346 89.0907C635.688 89.0907 622.815 89.0907 678.346 89.0907C737.331 89.0907 706.404 97.987 733.494 89.0907C760.583 80.1944 761.02 -14.396 778.06 25.4064C795.1 65.2089 799.441 105.354 818.369 102.002C855.869 95.3599 922.329 95.8599 939.369 95.8599C982.369 95.8599 1010.5 89.0887 1051.58 99.8599C1092.65 110.631 1080.85 10.8912 1109.25 65.2093C1137.65 119.527 1118.86 110.631 1151.63 110.631C1184.4 110.631 1204.5 110.631 1274.85 110.631V120.993" stroke="var(--stroke-0, white)" stroke-width="2"/>
<path id="Vector 7900" d="M38.8032 80.1944C20.9766 71.953 8.0884 108.422 0.369363 122.002H1274.87V110.631H1151.66C1118.89 110.631 1137.67 119.527 1109.27 65.2093C1080.87 10.8912 1092.67 110.631 1051.6 99.8599C1013.87 89.965 981.382 94.3599 943.369 94.3599C926.329 94.3599 835.369 94.8599 815.869 99.8599C797.249 104.634 795.123 65.2089 778.083 25.4064C761.043 -14.396 760.606 80.1944 733.516 89.0907C706.427 97.987 737.354 89.0907 678.368 89.0907H610.368H567.868C542.527 89.0907 533.841 113.437 512.869 25.4064C491.896 -62.6245 487.527 119.997 469.176 65.2093C450.825 10.4218 460.437 99.8606 430.726 89.0907C401.015 78.3208 406.695 104.076 378.295 89.0907C349.895 74.1056 358.736 90.9656 333.394 80.1944C308.052 69.4231 311.123 69.4231 297.142 80.1944C283.16 90.9656 269.064 80.1944 256.393 99.8599C243.722 119.525 243.285 101.265 227.992 54.4394C212.7 7.61356 214.011 24.0026 203.961 65.2093C193.912 106.416 191.291 98.4554 171.629 80.1944C151.967 61.9334 61.0865 90.496 38.8032 80.1944Z" fill="url(#paint0_linear_0_4)"/>
</g>
<defs>
<linearGradient id="paint0_linear_0_4" x1="637.619" y1="1.00161" x2="637.619" y2="122.002" gradientUnits="userSpaceOnUse">
<stop stop-color="white"/>
<stop offset="0.826923" stop-color="white" stop-opacity="0"/>
</linearGradient>
</defs>
</svg>
