<svg preserveAspectRatio="none" width="100%" height="100%" overflow="visible" style="display: block;" viewBox="0 0 16.3333 16.3333" fill="none" xmlns="http://www.w3.org/2000/svg">
<path id="Vector" d="M11.6667 16.3333C11.025 16.3333 10.4757 16.1049 10.0188 15.6479C9.56181 15.191 9.33333 14.6417 9.33333 14V2.33333C9.33333 1.69167 9.56181 1.14236 10.0188 0.685417C10.4757 0.228472 11.025 0 11.6667 0H14C14.6417 0 15.191 0.228472 15.6479 0.685417C16.1049 1.14236 16.3333 1.69167 16.3333 2.33333V14C16.3333 14.6417 16.1049 15.191 15.6479 15.6479C15.191 16.1049 14.6417 16.3333 14 16.3333H11.6667ZM2.33333 16.3333C1.69167 16.3333 1.14236 16.1049 0.685417 15.6479C0.228472 15.191 0 14.6417 0 14V2.33333C0 1.69167 0.228472 1.14236 0.685417 0.685417C1.14236 0.228472 1.69167 0 2.33333 0H4.66667C5.30833 0 5.85764 0.228472 6.31458 0.685417C6.77153 1.14236 7 1.69167 7 2.33333V14C7 14.6417 6.77153 15.191 6.31458 15.6479C5.85764 16.1049 5.30833 16.3333 4.66667 16.3333H2.33333ZM11.6667 14H14V2.33333H11.6667V14ZM2.33333 14H4.66667V2.33333H2.33333V14Z" fill="var(--fill-0, white)"/>
</svg>
