<svg preserveAspectRatio="none" width="100%" height="100%" overflow="visible" style="display: block;" viewBox="0 0 21 23.9902" fill="none" xmlns="http://www.w3.org/2000/svg">
<path id="Vector" d="M7 11.7402H6.125C5.87222 11.7402 5.66319 11.6575 5.49792 11.4923C5.33264 11.327 5.25 11.1179 5.25 10.8652C5.25 10.6124 5.33264 10.4034 5.49792 10.2381C5.66319 10.0728 5.87222 9.99017 6.125 9.99017H7.875C8.12778 9.99017 8.33681 10.0728 8.50208 10.2381C8.66736 10.4034 8.75 10.6124 8.75 10.8652V16.1152C8.75 16.3679 8.66736 16.577 8.50208 16.7423C8.33681 16.9075 8.12778 16.9902 7.875 16.9902C7.62222 16.9902 7.41319 16.9075 7.24792 16.7423C7.08264 16.577 7 16.3679 7 16.1152V11.7402ZM11.0833 16.9902C10.7528 16.9902 10.4757 16.8784 10.2521 16.6548C10.0285 16.4311 9.91667 16.1541 9.91667 15.8235V11.1568C9.91667 10.8263 10.0285 10.5492 10.2521 10.3256C10.4757 10.102 10.7528 9.99017 11.0833 9.99017H13.4167C13.7472 9.99017 14.0243 10.102 14.2479 10.3256C14.4715 10.5492 14.5833 10.8263 14.5833 11.1568V15.8235C14.5833 16.1541 14.4715 16.4311 14.2479 16.6548C14.0243 16.8784 13.7472 16.9902 13.4167 16.9902H11.0833ZM11.6667 15.2402H12.8333V11.7402H11.6667V15.2402ZM10.5 23.9902C9.04167 23.9902 7.67569 23.7131 6.40208 23.1589C5.12847 22.6048 4.02014 21.8561 3.07708 20.9131C2.13403 19.97 1.38542 18.8617 0.83125 17.5881C0.277083 16.3145 0 14.9485 0 13.4902C0 13.1596 0.111806 12.8825 0.335417 12.6589C0.559028 12.4353 0.836111 12.3235 1.16667 12.3235C1.49722 12.3235 1.77431 12.4353 1.99792 12.6589C2.22153 12.8825 2.33333 13.1596 2.33333 13.4902C2.33333 15.7652 3.12569 17.695 4.71042 19.2798C6.29514 20.8645 8.225 21.6568 10.5 21.6568C12.775 21.6568 14.7049 20.8645 16.2896 19.2798C17.8743 17.695 18.6667 15.7652 18.6667 13.4902C18.6667 11.2152 17.8743 9.28531 16.2896 7.70058C14.7049 6.11586 12.775 5.3235 10.5 5.3235H10.325L11.3167 6.31517C11.55 6.5485 11.6618 6.82072 11.6521 7.13183C11.6424 7.44295 11.5306 7.71517 11.3167 7.9485C11.0833 8.18183 10.8063 8.30336 10.4854 8.31308C10.1646 8.32281 9.8875 8.211 9.65417 7.97767L6.65 4.9735C6.41667 4.74017 6.3 4.46794 6.3 4.15683C6.3 3.84572 6.41667 3.5735 6.65 3.34017L9.65417 0.336C9.8875 0.102667 10.1646 -0.00913889 10.4854 0.000583333C10.8063 0.0103056 11.0833 0.131833 11.3167 0.365167C11.5306 0.5985 11.6424 0.870722 11.6521 1.18183C11.6618 1.49294 11.55 1.76517 11.3167 1.9985L10.325 2.99017H10.5C11.9583 2.99017 13.3243 3.26725 14.5979 3.82142C15.8715 4.37558 16.9799 5.12419 17.9229 6.06725C18.866 7.01031 19.6146 8.11864 20.1688 9.39225C20.7229 10.6659 21 12.0318 21 13.4902C21 14.9485 20.7229 16.3145 20.1688 17.5881C19.6146 18.8617 18.866 19.97 17.9229 20.9131C16.9799 21.8561 15.8715 22.6048 14.5979 23.1589C13.3243 23.7131 11.9583 23.9902 10.5 23.9902Z" fill="var(--fill-0, white)"/>
</svg>
