<svg preserveAspectRatio="none" width="100%" height="100%" overflow="visible" style="display: block;" viewBox="0 0 15.75 15.4138" fill="none" xmlns="http://www.w3.org/2000/svg">
<path id="Vector" d="M4.66667 11.2069H1.16667C0.836111 11.2069 0.559028 11.0951 0.335417 10.8715C0.111806 10.6479 0 10.3708 0 10.0403V5.37359C0 5.04303 0.111806 4.76595 0.335417 4.54234C0.559028 4.31873 0.836111 4.20692 1.16667 4.20692H4.66667L8.51667 0.356921C8.88611 -0.0125235 9.30903 -0.0951624 9.78542 0.109004C10.2618 0.313171 10.5 0.677754 10.5 1.20275V14.2111C10.5 14.7361 10.2618 15.1007 9.78542 15.3048C9.30903 15.509 8.88611 15.4264 8.51667 15.0569L4.66667 11.2069ZM15.75 7.70692C15.75 8.52359 15.5653 9.2965 15.1958 10.0257C14.8264 10.7548 14.3403 11.3528 13.7375 11.8194C13.5431 11.9361 13.3438 11.9409 13.1396 11.834C12.9354 11.7271 12.8333 11.5569 12.8333 11.3236V4.03192C12.8333 3.79859 12.9354 3.62845 13.1396 3.5215C13.3438 3.41456 13.5431 3.41942 13.7375 3.53609C14.3403 4.0222 14.8264 4.6347 15.1958 5.37359C15.5653 6.11248 15.75 6.89025 15.75 7.70692ZM8.16667 4.03192L5.65833 6.54025H2.33333V8.87359H5.65833L8.16667 11.3819V4.03192Z" fill="var(--fill-0, white)"/>
</svg>
