<svg preserveAspectRatio="none" width="100%" height="100%" overflow="visible" style="display: block;" viewBox="0 0 21 23.9902" fill="none" xmlns="http://www.w3.org/2000/svg">
<path id="Vector" d="M10.5 23.9902C9.04167 23.9902 7.67569 23.7131 6.40208 23.1589C5.12847 22.6048 4.02014 21.8561 3.07708 20.9131C2.13403 19.97 1.38542 18.8617 0.83125 17.5881C0.277083 16.3145 0 14.9485 0 13.4902C0 12.0318 0.277083 10.6659 0.83125 9.39225C1.38542 8.11864 2.13403 7.01031 3.07708 6.06725C4.02014 5.12419 5.12847 4.37558 6.40208 3.82142C7.67569 3.26725 9.04167 2.99017 10.5 2.99017H10.675L9.68333 1.9985C9.45 1.76517 9.33819 1.49294 9.34792 1.18183C9.35764 0.870722 9.46944 0.5985 9.68333 0.365167C9.91667 0.131833 10.1938 0.0103056 10.5146 0.000583333C10.8354 -0.00913889 11.1125 0.102667 11.3458 0.336L14.35 3.34017C14.5833 3.5735 14.7 3.84572 14.7 4.15683C14.7 4.46794 14.5833 4.74017 14.35 4.9735L11.3458 7.97767C11.1125 8.211 10.8354 8.32281 10.5146 8.31308C10.1938 8.30336 9.91667 8.18183 9.68333 7.9485C9.46944 7.71517 9.35764 7.44295 9.34792 7.13183C9.33819 6.82072 9.45 6.5485 9.68333 6.31517L10.675 5.3235H10.5C8.225 5.3235 6.29514 6.11586 4.71042 7.70058C3.12569 9.28531 2.33333 11.2152 2.33333 13.4902C2.33333 15.7652 3.12569 17.695 4.71042 19.2798C6.29514 20.8645 8.225 21.6568 10.5 21.6568C12.775 21.6568 14.7049 20.8645 16.2896 19.2798C17.8743 17.695 18.6667 15.7652 18.6667 13.4902C18.6667 13.1596 18.7785 12.8825 19.0021 12.6589C19.2257 12.4353 19.5028 12.3235 19.8333 12.3235C20.1639 12.3235 20.441 12.4353 20.6646 12.6589C20.8882 12.8825 21 13.1596 21 13.4902C21 14.9485 20.7229 16.3145 20.1688 17.5881C19.6146 18.8617 18.866 19.97 17.9229 20.9131C16.9799 21.8561 15.8715 22.6048 14.5979 23.1589C13.3243 23.7131 11.9583 23.9902 10.5 23.9902ZM7 11.7402H6.125C5.87222 11.7402 5.66319 11.6575 5.49792 11.4923C5.33264 11.327 5.25 11.1179 5.25 10.8652C5.25 10.6124 5.33264 10.4034 5.49792 10.2381C5.66319 10.0728 5.87222 9.99017 6.125 9.99017H7.875C8.12778 9.99017 8.33681 10.0728 8.50208 10.2381C8.66736 10.4034 8.75 10.6124 8.75 10.8652V16.1152C8.75 16.3679 8.66736 16.577 8.50208 16.7423C8.33681 16.9075 8.12778 16.9902 7.875 16.9902C7.62222 16.9902 7.41319 16.9075 7.24792 16.7423C7.08264 16.577 7 16.3679 7 16.1152V11.7402ZM11.0833 16.9902C10.7528 16.9902 10.4757 16.8784 10.2521 16.6548C10.0285 16.4311 9.91667 16.1541 9.91667 15.8235V11.1568C9.91667 10.8263 10.0285 10.5492 10.2521 10.3256C10.4757 10.102 10.7528 9.99017 11.0833 9.99017H13.4167C13.7472 9.99017 14.0243 10.102 14.2479 10.3256C14.4715 10.5492 14.5833 10.8263 14.5833 11.1568V15.8235C14.5833 16.1541 14.4715 16.4311 14.2479 16.6548C14.0243 16.8784 13.7472 16.9902 13.4167 16.9902H11.0833ZM11.6667 15.2402H12.8333V11.7402H11.6667V15.2402Z" fill="var(--fill-0, white)"/>
</svg>
