<svg preserveAspectRatio="none" width="100%" height="100%" overflow="visible" style="display: block;" viewBox="0 0 21 21" fill="none" xmlns="http://www.w3.org/2000/svg">
<path id="Vector" d="M2.33333 18.6667H4.66667C4.99722 18.6667 5.27431 18.7785 5.49792 19.0021C5.72153 19.2257 5.83333 19.5028 5.83333 19.8333C5.83333 20.1639 5.72153 20.441 5.49792 20.6646C5.27431 20.8882 4.99722 21 4.66667 21H1.16667C0.836111 21 0.559028 20.8882 0.335417 20.6646C0.111806 20.441 0 20.1639 0 19.8333V16.3333C0 16.0028 0.111806 15.7257 0.335417 15.5021C0.559028 15.2785 0.836111 15.1667 1.16667 15.1667C1.49722 15.1667 1.77431 15.2785 1.99792 15.5021C2.22153 15.7257 2.33333 16.0028 2.33333 16.3333V18.6667ZM18.6667 18.6667V16.3333C18.6667 16.0028 18.7785 15.7257 19.0021 15.5021C19.2257 15.2785 19.5028 15.1667 19.8333 15.1667C20.1639 15.1667 20.441 15.2785 20.6646 15.5021C20.8882 15.7257 21 16.0028 21 16.3333V19.8333C21 20.1639 20.8882 20.441 20.6646 20.6646C20.441 20.8882 20.1639 21 19.8333 21H16.3333C16.0028 21 15.7257 20.8882 15.5021 20.6646C15.2785 20.441 15.1667 20.1639 15.1667 19.8333C15.1667 19.5028 15.2785 19.2257 15.5021 19.0021C15.7257 18.7785 16.0028 18.6667 16.3333 18.6667H18.6667ZM2.33333 2.33333V4.66667C2.33333 4.99722 2.22153 5.27431 1.99792 5.49792C1.77431 5.72153 1.49722 5.83333 1.16667 5.83333C0.836111 5.83333 0.559028 5.72153 0.335417 5.49792C0.111806 5.27431 0 4.99722 0 4.66667V1.16667C0 0.836111 0.111806 0.559028 0.335417 0.335417C0.559028 0.111806 0.836111 0 1.16667 0H4.66667C4.99722 0 5.27431 0.111806 5.49792 0.335417C5.72153 0.559028 5.83333 0.836111 5.83333 1.16667C5.83333 1.49722 5.72153 1.77431 5.49792 1.99792C5.27431 2.22153 4.99722 2.33333 4.66667 2.33333H2.33333ZM18.6667 2.33333H16.3333C16.0028 2.33333 15.7257 2.22153 15.5021 1.99792C15.2785 1.77431 15.1667 1.49722 15.1667 1.16667C15.1667 0.836111 15.2785 0.559028 15.5021 0.335417C15.7257 0.111806 16.0028 0 16.3333 0H19.8333C20.1639 0 20.441 0.111806 20.6646 0.335417C20.8882 0.559028 21 0.836111 21 1.16667V4.66667C21 4.99722 20.8882 5.27431 20.6646 5.49792C20.441 5.72153 20.1639 5.83333 19.8333 5.83333C19.5028 5.83333 19.2257 5.72153 19.0021 5.49792C18.7785 5.27431 18.6667 4.99722 18.6667 4.66667V2.33333Z" fill="var(--fill-0, white)"/>
</svg>
