<svg preserveAspectRatio="xMidYMid meet" width="100%" height="100%" overflow="visible" style="display: block;" viewBox="0 0 22.2133 23.3333" fill="none" xmlns="http://www.w3.org/2000/svg">
<path id="Vector" d="M9.73583 23.3333C9.21083 23.3333 8.75875 23.1583 8.37958 22.8083C8.00042 22.4583 7.77194 22.0306 7.69417 21.525L7.43167 19.6C7.17889 19.5028 6.94069 19.3861 6.71708 19.25C6.49347 19.1139 6.27472 18.9681 6.06083 18.8125L4.2525 19.5708C3.76639 19.7847 3.28028 19.8042 2.79417 19.6292C2.30806 19.4542 1.92889 19.1431 1.65667 18.6958L0.285833 16.3042C0.0136111 15.8569 -0.0641667 15.3806 0.0525 14.875C0.169167 14.3694 0.431667 13.9514 0.84 13.6208L2.38583 12.4542C2.36639 12.3181 2.35667 12.1868 2.35667 12.0604V11.2729C2.35667 11.1465 2.36639 11.0153 2.38583 10.8792L0.84 9.7125C0.431667 9.38194 0.169167 8.96389 0.0525 8.45833C-0.0641667 7.95278 0.0136111 7.47639 0.285833 7.02917L1.65667 4.6375C1.92889 4.19028 2.30806 3.87917 2.79417 3.70417C3.28028 3.52917 3.76639 3.54861 4.2525 3.7625L6.06083 4.52083C6.27472 4.36528 6.49833 4.21944 6.73167 4.08333C6.965 3.94722 7.19833 3.83056 7.43167 3.73333L7.69417 1.80833C7.77194 1.30278 8.00042 0.875 8.37958 0.525C8.75875 0.175 9.21083 0 9.73583 0H12.4775C13.0025 0 13.4546 0.175 13.8337 0.525C14.2129 0.875 14.4414 1.30278 14.5192 1.80833L14.7817 3.73333C15.0344 3.83056 15.2726 3.94722 15.4962 4.08333C15.7199 4.21944 15.9386 4.36528 16.1525 4.52083L17.9608 3.7625C18.4469 3.54861 18.9331 3.52917 19.4192 3.70417C19.9053 3.87917 20.2844 4.19028 20.5567 4.6375L21.9275 7.02917C22.1997 7.47639 22.2775 7.95278 22.1608 8.45833C22.0442 8.96389 21.7817 9.38194 21.3733 9.7125L19.8275 10.8792C19.8469 11.0153 19.8567 11.1465 19.8567 11.2729V12.0604C19.8567 12.1868 19.8372 12.3181 19.7983 12.4542L21.3442 13.6208C21.7525 13.9514 22.015 14.3694 22.1317 14.875C22.2483 15.3806 22.1706 15.8569 21.8983 16.3042L20.4983 18.6958C20.2261 19.1431 19.8469 19.4542 19.3608 19.6292C18.8747 19.8042 18.3886 19.7847 17.9025 19.5708L16.1525 18.8125C15.9386 18.9681 15.715 19.1139 15.4817 19.25C15.2483 19.3861 15.015 19.5028 14.7817 19.6L14.5192 21.525C14.4414 22.0306 14.2129 22.4583 13.8337 22.8083C13.4546 23.1583 13.0025 23.3333 12.4775 23.3333H9.73583ZM9.94 21H12.2442L12.6525 17.9083C13.2553 17.7528 13.8143 17.5243 14.3296 17.2229C14.8449 16.9215 15.3164 16.5569 15.7442 16.1292L18.6317 17.325L19.7692 15.3417L17.2608 13.4458C17.3581 13.1736 17.4261 12.8868 17.465 12.5854C17.5039 12.284 17.5233 11.9778 17.5233 11.6667C17.5233 11.3556 17.5039 11.0493 17.465 10.7479C17.4261 10.4465 17.3581 10.1597 17.2608 9.8875L19.7692 7.99167L18.6317 6.00833L15.7442 7.23333C15.3164 6.78611 14.8449 6.41181 14.3296 6.11042C13.8143 5.80903 13.2553 5.58056 12.6525 5.425L12.2733 2.33333H9.96917L9.56083 5.425C8.95806 5.58056 8.39903 5.80903 7.88375 6.11042C7.36847 6.41181 6.89694 6.77639 6.46917 7.20417L3.58167 6.00833L2.44417 7.99167L4.9525 9.85833C4.85528 10.15 4.78722 10.4417 4.74833 10.7333C4.70944 11.025 4.69 11.3361 4.69 11.6667C4.69 11.9778 4.70944 12.2792 4.74833 12.5708C4.78722 12.8625 4.85528 13.1542 4.9525 13.4458L2.44417 15.3417L3.58167 17.325L6.46917 16.1C6.89694 16.5472 7.36847 16.9215 7.88375 17.2229C8.39903 17.5243 8.95806 17.7528 9.56083 17.9083L9.94 21ZM11.165 15.75C12.2928 15.75 13.2553 15.3514 14.0525 14.5542C14.8497 13.7569 15.2483 12.7944 15.2483 11.6667C15.2483 10.5389 14.8497 9.57639 14.0525 8.77917C13.2553 7.98194 12.2928 7.58333 11.165 7.58333C10.0178 7.58333 9.05042 7.98194 8.26292 8.77917C7.47542 9.57639 7.08167 10.5389 7.08167 11.6667C7.08167 12.7944 7.47542 13.7569 8.26292 14.5542C9.05042 15.3514 10.0178 15.75 11.165 15.75Z" fill="white"/>
</svg>
