<svg preserveAspectRatio="none" width="100%" height="100%" overflow="visible" style="display: block;" viewBox="0 0 23.3333 18.6667" fill="none" xmlns="http://www.w3.org/2000/svg">
<path id="Vector" d="M2.33333 18.6667C1.69167 18.6667 1.14236 18.4382 0.685417 17.9812C0.228472 17.5243 0 16.975 0 16.3333V2.33333C0 1.69167 0.228472 1.14236 0.685417 0.685417C1.14236 0.228472 1.69167 0 2.33333 0H21C21.6417 0 22.191 0.228472 22.6479 0.685417C23.1049 1.14236 23.3333 1.69167 23.3333 2.33333V16.3333C23.3333 16.975 23.1049 17.5243 22.6479 17.9812C22.191 18.4382 21.6417 18.6667 21 18.6667H2.33333ZM2.33333 16.3333H21V2.33333H2.33333V16.3333ZM5.83333 14H12.8333C13.1639 14 13.441 13.8882 13.6646 13.6646C13.8882 13.441 14 13.1639 14 12.8333C14 12.5028 13.8882 12.2257 13.6646 12.0021C13.441 11.7785 13.1639 11.6667 12.8333 11.6667H5.83333C5.50278 11.6667 5.22569 11.7785 5.00208 12.0021C4.77847 12.2257 4.66667 12.5028 4.66667 12.8333C4.66667 13.1639 4.77847 13.441 5.00208 13.6646C5.22569 13.8882 5.50278 14 5.83333 14ZM10.5 9.33333H17.5C17.8306 9.33333 18.1076 9.22153 18.3313 8.99792C18.5549 8.77431 18.6667 8.49722 18.6667 8.16667C18.6667 7.83611 18.5549 7.55903 18.3313 7.33542C18.1076 7.11181 17.8306 7 17.5 7H10.5C10.1694 7 9.89236 7.11181 9.66875 7.33542C9.44514 7.55903 9.33333 7.83611 9.33333 8.16667C9.33333 8.49722 9.44514 8.77431 9.66875 8.99792C9.89236 9.22153 10.1694 9.33333 10.5 9.33333ZM5.83333 9.33333C6.16389 9.33333 6.44097 9.22153 6.66458 8.99792C6.88819 8.77431 7 8.49722 7 8.16667C7 7.83611 6.88819 7.55903 6.66458 7.33542C6.44097 7.11181 6.16389 7 5.83333 7C5.50278 7 5.22569 7.11181 5.00208 7.33542C4.77847 7.55903 4.66667 7.83611 4.66667 8.16667C4.66667 8.49722 4.77847 8.77431 5.00208 8.99792C5.22569 9.22153 5.50278 9.33333 5.83333 9.33333ZM17.5 14C17.8306 14 18.1076 13.8882 18.3313 13.6646C18.5549 13.441 18.6667 13.1639 18.6667 12.8333C18.6667 12.5028 18.5549 12.2257 18.3313 12.0021C18.1076 11.7785 17.8306 11.6667 17.5 11.6667C17.1694 11.6667 16.8924 11.7785 16.6688 12.0021C16.4451 12.2257 16.3333 12.5028 16.3333 12.8333C16.3333 13.1639 16.4451 13.441 16.6688 13.6646C16.8924 13.8882 17.1694 14 17.5 14Z" fill="var(--fill-0, white)"/>
</svg>
