<svg preserveAspectRatio="none" width="100%" height="100%" overflow="visible" style="display: block;" viewBox="0 0 24 24" fill="none" xmlns="http://www.w3.org/2000/svg">
<g id="voice (1) 1">
<path id="Vector" d="M6.5 7.5C6.5 4.4625 8.9625 2 12 2C15.0375 2 17.5 4.4625 17.5 7.5V10.5C17.5 13.5375 15.0375 16 12 16C8.9625 16 6.5 13.5375 6.5 10.5V7.5ZM12 4C11.0717 4 10.1815 4.36875 9.52513 5.02513C8.86875 5.6815 8.5 6.57174 8.5 7.5V10.5C8.5 10.9596 8.59053 11.4148 8.76642 11.8394C8.94231 12.264 9.20012 12.6499 9.52513 12.9749C9.85013 13.2999 10.236 13.5577 10.6606 13.7336C11.0852 13.9095 11.5404 14 12 14C12.4596 14 12.9148 13.9095 13.3394 13.7336C13.764 13.5577 14.1499 13.2999 14.4749 12.9749C14.7999 12.6499 15.0577 12.264 15.2336 11.8394C15.4095 11.4148 15.5 10.9596 15.5 10.5V7.5C15.5 7.04037 15.4095 6.58525 15.2336 6.16061C15.0577 5.73597 14.7999 5.35013 14.4749 5.02513C14.1499 4.70012 13.764 4.44231 13.3394 4.26642C12.9148 4.09053 12.4596 4 12 4ZM4.5 10.5V11C4.5 14.866 7.634 18 11.5 18H12.5C16.366 18 19.5 14.866 19.5 11V10.5H21.5V11C21.5 15.803 17.738 19.727 13 19.9865V22H11V19.9865C6.262 19.7265 2.5 15.803 2.5 11V10.5H4.5Z" fill="var(--fill-0, white)"/>
</g>
</svg>
